HIERARCHY
ROOT pelvis
{
  OFFSET 0 100 0
  CHANNELS 6 Xposition Yposition Zposition Zrotation Xrotation Yrotation
  JOINT pelvis_right_femur
  {
    OFFSET -10.78128 -3.44521 -0.5502486
    CHANNELS 3 Zrotation Xrotation Yrotation
    JOINT right_femur_tibia
    {
      OFFSET -0.8047443 -44.0398 -0.1307829
      CHANNELS 3 Zrotation Xrotation Yrotation
      JOINT right_tibia_foot
      {
        OFFSET 3.006224 -47.83518 -5
        CHANNELS 3 Zrotation Xrotation Yrotation
        End Site
        {
          OFFSET 0 -5 15
        }
      }
    }
  }
  JOINT pelvis_left_femur
  {
    OFFSET 10.78128 -3.44521 -0.5502486
    CHANNELS 3 Zrotation Xrotation Yrotation
    JOINT left_femur_tibia
    {
      OFFSET 0.8047443 -44.0398 -0.1307829
      CHANNELS 3 Zrotation Xrotation Yrotation
      JOINT left_tibia_foot
      {
        OFFSET -4.370144 -48.10324 -4.275266
        CHANNELS 3 Zrotation Xrotation Yrotation
        End Site
        {
          OFFSET 0 -5 15
        }
      }
    }
  }
  JOINT pelvis_spine1
  {
    OFFSET 0 6.468898 -3.129235
    CHANNELS 3 Zrotation Xrotation Yrotation
    JOINT spine1
    {
      OFFSET 0 23.15396 4.99043
      CHANNELS 3 Zrotation Xrotation Yrotation
      JOINT spine2
      {
        OFFSET 0 20.79997 -5.064912
        CHANNELS 3 Zrotation Xrotation Yrotation
        JOINT neck
        {
          OFFSET 0 14.38658 9.616178
          CHANNELS 3 Zrotation Xrotation Yrotation
          End Site
          {
            OFFSET 0 20 0
          }
        }
      }
      JOINT right_manubrium
      {
        OFFSET -5.722621 16.35077 3.967754
        CHANNELS 3 Zrotation Xrotation Yrotation
        JOINT right_clavicle
        {
          OFFSET -13.16364 1.694482 -4.693211
          CHANNELS 3 Zrotation Xrotation Yrotation
          JOINT right_humerus
          {
            OFFSET -28.5034 -0.3100689 -2.792744
            CHANNELS 3 Zrotation Xrotation Yrotation
            JOINT right_radius
            {
              OFFSET -25.15693 0.02248979 -1.271978
              CHANNELS 3 Zrotation Xrotation Yrotation
              End Site
              {
                OFFSET -15 0 0
              }
            }
          }
        }
      }
      JOINT left_manubrium
      {
        OFFSET 5.722621 16.35077 3.967754
        CHANNELS 3 Zrotation Xrotation Yrotation
        JOINT left_clavicle
        {
          OFFSET 13.16364 1.694482 -4.693211
          CHANNELS 3 Zrotation Xrotation Yrotation
          JOINT left_humerus
          {
            OFFSET 29.39168 -1.063119 -2.237045
            CHANNELS 3 Zrotation Xrotation Yrotation
            JOINT left_radius
            {
              OFFSET 24.59957 -0.9528479 0.9047498
              CHANNELS 3 Zrotation Xrotation Yrotation
              End Site
              {
                OFFSET 15 -0 -0
              }
            }
          }
        }
      }
    }
  }
}
MOTION
Frames: 7
Frame Time: 0.0416666666667
-987.4168 102.6265 2297.803 -9.10122 -6.989643 -56.14391 6.019816 -11.27766 -8.30161 -0 6.937406 -0 -15.05139 7.574223 0.8987639 -3.256894 6.955446 -4.744651 -0 39.48726 -0 5.966128 -8.724594 13.41065 -3.106672 -1.087192 4.944416 0.2990619 12.00326 -7.242043 0.4841199 21.53937 6.964458 6.248253 -19.61193 5.054561 2.769321 -20.04324 11.25198 88.21618 32.73244 -17.34559 -0 0 16.46488 -16.85114 7.585576 4.610493 8.018703 -24.7872 -6.179565 -86.83718 10.17709 13.14194 0 0 -19.26346 17.63277 11.71156 -11.8416
-992.2396 102.8508 2301.178 -10.44198 -7.594465 -57.19027 6.693912 -6.301842 -7.761427 -0 7.697601 -0 -16.22521 5.6592 0.5430741 -2.167584 2.827885 -4.754523 -0 41.61508 -0 6.463498 -6.661048 14.04542 -2.768874 -1.007327 5.048645 0.05698362 12.31636 -7.007911 0.4675051 21.55899 6.804042 6.463572 -19.18244 4.599437 2.617237 -20.1041 11.30376 88.16699 31.65536 -17.03922 -0 0 16.76851 -17.93279 7.836007 4.720838 7.931609 -25.04834 -6.715212 -87.48633 9.655427 14.02231 0 0 -17.39417 17.28588 12.03055 -11.55204
-996.6806 102.8575 2304.383 -11.50077 -8.05375 -58.27404 7.15247 -1.228135 -7.532805 -0 8.062159 -0 -17.21148 3.246465 0.6161632 -0.8309202 -1.872692 -4.713808 -0 39.16828 -0 7.123213 -5.000927 14.27904 -2.465107 -1.003283 5.299527 -0.1039988 12.60328 -6.76047 0.463396 21.50471 6.635391 6.633253 -18.91206 4.213141 2.49648 -20.40579 11.38774 87.92912 30.52336 -16.48958 -0 0 17.5019 -18.71379 8.030736 4.73705 7.701553 -25.22216 -7.165009 -88.55687 9.280492 15.60233 0 0 -14.77065 16.68072 12.38547 -10.88265
-1000.772 102.5127 2307.568 -11.99026 -7.97 -59.23068 7.555147 2.992285 -7.052399 -0 8.682673 -0 -17.33978 0.5133608 0.8988526 0.7585912 -6.225598 -4.30418 -0 32.35748 -0 7.969981 -3.492303 13.82974 -2.282233 -1.122632 5.681667 -0.128868 12.77964 -6.558132 0.4388566 21.3759 6.518347 6.731639 -18.80817 3.952036 2.437891 -20.94118 11.50362 87.516 29.53538 -15.78557 -0 0 18.5581 -19.01529 8.083428 4.668465 7.377904 -25.30537 -7.414004 -89.91234 9.074056 17.76271 0 0 -11.85954 15.86516 12.7273 -9.848128
-1004.649 101.9086 2310.89 -11.82621 -7.202956 -59.97462 7.815121 5.919894 -5.604276 -0 10.58227 -0 -16.0943 -2.622537 0.7929073 2.314399 -9.429685 -3.583803 -0 23.61223 -0 8.728141 -1.959857 13.00925 -2.245082 -1.387242 6.119206 -0.008289066 12.79268 -6.44568 0.3650269 21.21592 6.492598 6.755595 -18.78697 3.822743 2.458931 -21.59562 11.64206 86.98453 28.77206 -15.09159 -0 0 19.68093 -18.87187 7.976599 4.5853 7.051295 -25.32691 -7.40341 -91.36058 9.011093 20.23977 0 0 -9.130969 14.9712 13.09594 -8.560995
-1008.509 101.2542 2314.431 -11.19214 -6.086149 -60.53806 7.574241 8.078999 -3.356476 -0 13.81994 -0 -13.88599 -6.088363 0.01249599 3.260675 -11.34075 -3.113781 -0 16.05506 -0 8.741294 -0.7172364 12.66966 -2.242348 -1.744907 6.482998 0.1242827 12.68084 -6.315021 0.2552887 21.12416 6.567123 6.725024 -18.64521 3.824868 2.571244 -22.17846 11.77618 86.39592 28.27458 -14.43922 -0 0 20.54144 -18.73138 7.906749 4.761944 6.811359 -25.23739 -7.161983 -92.72095 9.036835 22.77102 0 0 -6.704125 14.17958 13.54169 -7.196209
-1012.519 100.668 2318.174 -10.53165 -5.279891 -61.05504 6.542647 10.2779 -1.545334 -0 17.19482 -0 -11.99097 -9.085944 -0.960781 3.089171 -12.13206 -3.702504 -0 11.37834 -0 7.498505 -0.3600447 13.50721 -2.123962 -2.066021 6.707619 0.09658752 12.55284 -6.023622 0.1346639 21.15563 6.699629 6.671815 -18.24778 3.900143 2.704659 -22.60779 11.86455 85.82781 28.06043 -13.72224 -0 0 21.0489 -19.08904 8.071125 5.436961 6.663284 -24.98574 -6.846437 -93.78969 9.031087 25.09306 0 0 -4.639318 13.6102 13.91811 -5.975174
